<svg version="1.1" id="Layer_1" xmlns="http://www.w3.org/2000/svg" xmlns:xlink="http://www.w3.org/1999/xlink" x="0px" y="0px"
	 width="100%" viewBox="0 0 512 512" enable-background="new 0 0 512 512" xml:space="preserve">
<path fill="#000000" opacity="1.000000" stroke="none" 
	d="
M1.000000,189.000000 
	C1.000000,141.645767 1.000000,94.291542 1.263803,46.689323 
	C3.377880,47.520168 5.527823,48.288685 7.024340,49.733845 
	C12.303740,54.832088 18.170923,57.191067 25.789341,57.265903 
	C39.249065,57.398136 42.996826,61.649723 43.100105,75.075523 
	C43.144299,80.821373 45.644581,84.586342 50.589188,86.924011 
	C52.834209,87.985397 55.217232,88.821030 57.614136,89.481552 
	C62.946747,90.951080 67.435066,93.472008 70.327705,98.417313 
	C72.078934,101.411240 74.805305,102.082687 78.094574,101.364769 
	C86.930000,99.436356 97.055405,87.232597 97.276985,78.147728 
	C97.420540,72.261620 100.273735,69.017197 106.174728,68.049034 
	C108.796432,67.618904 111.555794,67.593109 114.022575,66.727814 
	C125.324028,62.763500 136.553513,58.592590 147.788345,54.440445 
	C151.885391,52.926270 155.251236,50.215229 156.567230,46.087589 
	C159.115463,38.095024 164.521759,33.061317 171.462631,28.791039 
	C179.821350,23.648455 181.017456,7.415236 174.000000,1.000000 
	C258.354218,1.000000 342.708466,1.000000 427.335449,1.173141 
	C427.264160,1.703565 426.557098,2.180061 426.629517,2.400582 
	C428.192657,7.160293 427.778992,12.205601 428.802307,17.031977 
	C429.240631,19.099384 430.615448,20.449154 432.356201,21.620001 
	C449.867126,33.398247 468.282928,43.693958 486.325806,54.599010 
	C490.603729,57.184574 495.008636,58.985027 500.371307,58.865883 
	C504.535126,58.773373 509.005524,59.049927 513.000000,61.000000 
	C513.000000,166.020889 513.000000,271.041779 512.733032,376.296936 
	C511.453156,374.440918 510.300720,372.405945 509.447815,370.252319 
	C491.783905,325.650787 470.131866,283.107025 442.989288,243.515717 
	C413.708313,200.805252 379.496094,162.949509 334.277496,136.337006 
	C308.987885,121.453316 281.859772,111.832024 252.673386,108.454033 
	C227.437820,105.533310 202.505554,107.706512 177.900970,113.915459 
	C169.923737,115.928497 161.983337,118.044815 153.695816,121.539696 
	C157.063080,122.924271 159.476654,121.817490 161.798721,121.314949 
	C194.305435,114.279861 226.944427,112.550415 259.971619,117.476303 
	C308.122620,124.657837 349.441406,145.659088 385.192993,178.206894 
	C409.181824,200.046082 428.127686,225.971832 445.112274,253.386841 
	C465.066193,285.594788 480.868835,319.975372 497.165802,354.087860 
	C500.611908,361.301208 504.009644,368.537689 507.425964,375.765320 
	C508.595306,378.239166 509.886932,380.385101 513.000000,378.000000 
	C513.000000,422.947876 513.000000,467.895752 513.000000,513.000000 
	C432.312500,513.000000 351.624908,513.000000 270.660522,512.881470 
	C270.716766,512.221069 272.517731,512.180725 271.321320,511.217773 
	C270.221527,510.332520 268.623199,510.171509 267.604492,508.887909 
	C261.785797,501.556519 253.994095,498.014404 244.804733,497.247467 
	C219.950775,495.173157 195.434235,490.126373 170.479156,488.868439 
	C165.670609,488.626068 160.878433,487.824554 156.040375,487.999512 
	C151.088272,488.178589 146.909576,486.594727 143.486237,482.968018 
	C139.538925,478.786133 134.596069,476.782654 128.929321,476.019226 
	C120.686035,474.908661 112.269836,474.251587 104.309387,472.031433 
	C82.694237,466.003082 61.151882,467.212860 39.527252,471.291748 
	C36.209320,471.917572 33.623028,471.307953 31.415716,468.871002 
	C28.177191,465.295471 24.934813,461.722748 21.746731,458.102478 
	C19.328239,455.356079 16.832716,454.561127 13.441676,456.710480 
	C10.663525,458.471313 7.595130,460.034821 4.114297,458.039703 
	C2.856265,457.318634 1.935214,458.332703 1.000000,459.000000 
	C1.000000,370.312439 1.000000,281.624878 1.242098,192.723724 
	C3.539366,197.964981 7.195083,202.245789 11.577559,205.919388 
	C27.408726,219.189835 43.247013,232.452576 59.184959,245.594101 
	C61.914234,247.844498 62.595589,249.890198 61.257092,253.298782 
	C52.278965,276.162170 50.117989,300.467896 46.850491,324.492737 
	C46.124889,329.827850 47.250420,335.832733 53.093479,338.702240 
	C58.651840,341.431946 63.441059,338.942841 67.746521,335.370789 
	C70.307190,333.246277 72.840721,331.073730 75.231934,328.762878 
	C90.355537,314.147583 103.946396,298.142792 117.324272,281.958740 
	C119.791359,278.974152 121.648422,278.499054 124.440788,281.527893 
	C131.687271,289.387970 139.900742,296.193481 148.300232,302.783447 
	C158.258759,310.596588 167.966858,318.746246 178.171295,326.220581 
	C182.677002,329.520813 188.206863,332.381226 193.903305,328.526764 
	C199.744949,324.574066 198.622467,318.340057 197.103775,313.018066 
	C191.079346,291.906494 185.767166,270.544800 176.882065,250.346405 
	C176.113190,248.598526 174.771011,246.894501 175.660873,244.310516 
	C188.014450,241.870056 197.657822,234.085098 207.332642,226.464661 
	C215.968369,219.662628 224.432755,212.634888 232.800888,205.505051 
	C236.464630,202.383438 240.041534,199.035172 243.055939,195.303589 
	C248.409973,188.675690 246.478546,182.157120 238.598984,179.002884 
	C231.843369,176.298553 224.655121,175.871429 217.530655,175.429443 
	C201.880737,174.458588 186.211548,175.175858 170.551666,175.324677 
	C167.212952,175.356415 165.008652,174.520966 163.420029,171.262558 
	C154.509354,152.985962 141.618835,137.426697 128.998871,121.710770 
	C126.938408,119.144836 124.375404,116.877289 121.715416,114.919075 
	C115.531754,110.366791 110.348152,111.189430 105.709122,117.222939 
	C100.787445,123.624046 97.665245,131.154175 94.826775,138.464661 
	C89.907974,151.132996 86.481567,164.393204 82.711739,177.486526 
	C81.765175,180.774155 80.176971,181.792206 77.025246,181.369354 
	C73.729462,180.927139 70.414360,180.527908 67.095528,180.375977 
	C52.292427,179.698349 37.489258,178.956467 22.677494,178.558929 
	C13.807014,178.320847 5.105487,179.056656 1.000000,189.000000 
M244.952438,256.499451 
	C235.258408,257.964355 225.241547,257.366791 215.850479,261.095062 
	C220.010315,261.635956 224.135361,261.612579 228.260056,261.639709 
	C254.453415,261.811951 280.419342,264.104950 306.070282,269.650604 
	C345.469849,278.168640 381.801514,293.704498 414.920746,316.727600 
	C431.798950,328.460602 447.408722,341.675293 461.869080,356.278900 
	C463.470764,357.896454 464.797943,360.461426 467.881104,359.890625 
	C469.267853,357.099274 467.111359,355.690002 465.831543,354.187927 
	C442.299011,326.567505 414.201447,304.637207 382.041168,287.999969 
	C339.378998,265.929871 294.012299,255.143631 244.952438,256.499451 
M269.459473,323.732147 
	C275.032684,324.676605 280.610229,325.596283 286.178436,326.569397 
	C344.511749,336.763611 395.734924,361.123627 438.287659,402.823364 
	C439.976624,404.478485 441.911682,408.262970 444.623260,405.446320 
	C447.160492,402.810791 443.506683,400.804138 441.894592,399.004913 
	C414.361206,368.275665 380.489014,347.148895 341.832367,333.401764 
	C301.072723,318.906708 258.919708,314.511353 215.934723,316.461731 
	C214.393204,316.531647 212.566895,316.388824 211.251694,319.152100 
	C230.679443,320.326874 249.725281,320.922516 269.459473,323.732147 
M388.855103,236.646576 
	C354.281433,205.356354 275.717987,170.250214 259.097198,178.693497 
	C260.450256,180.105087 262.233002,180.392899 264.023682,180.823303 
	C291.549316,187.439529 317.694855,197.512665 342.046295,212.068161 
	C374.099121,231.227005 400.451721,256.594910 422.930573,286.200500 
	C424.179749,287.845734 425.464874,290.468781 428.016479,288.760956 
	C430.627899,287.013092 428.555023,284.864044 427.499207,283.126129 
	C417.050201,265.927002 404.183929,250.721176 388.855103,236.646576 
z"/>
<path fill="#000000" opacity="1.000000" stroke="none" 
	d="
M124.466019,274.559998 
	C117.498024,269.202576 117.579971,269.272308 112.006554,275.820984 
	C100.563133,289.266846 89.035004,302.640686 77.513290,316.019684 
	C74.785332,319.187347 71.751114,322.087341 68.223091,324.322784 
	C65.280861,326.187134 62.061489,328.201416 58.525459,325.681274 
	C55.180183,323.297028 54.673901,319.269348 55.936687,316.189484 
	C57.709888,311.864746 57.416843,307.434937 58.097462,303.102539 
	C58.820053,298.502930 61.046974,297.449280 65.194481,297.833405 
	C72.400223,298.500702 79.633263,298.873260 86.893578,298.929199 
	C78.286972,296.335724 69.368607,296.538818 60.626896,296.289764 
	C58.277828,286.407104 60.917847,284.044830 75.396072,283.963257 
	C72.113197,281.796143 69.519104,282.035858 67.163994,282.026855 
	C62.936031,282.010681 62.130859,279.988556 62.945045,276.265381 
	C64.611420,268.645294 64.525955,268.629517 72.403442,268.662903 
	C75.212357,268.674805 78.021370,268.664795 80.914391,268.086639 
	C78.724686,266.168121 76.098099,266.348633 73.483391,266.651520 
	C65.375282,267.590790 65.311737,267.536957 66.599602,259.282745 
	C66.753441,258.296753 66.902313,257.309784 67.035744,256.320862 
	C67.506813,252.829361 69.457474,251.503021 72.931267,252.052322 
	C75.985023,252.535233 79.091614,253.156281 82.361900,251.647736 
	C78.075691,248.971497 73.247841,251.056671 68.849907,249.358185 
	C69.617104,240.013870 59.481472,239.059204 55.564499,231.718170 
	C66.235634,231.589462 76.108986,234.528763 86.174751,233.794235 
	C81.630028,230.565323 76.163246,231.339417 71.128693,230.485458 
	C64.742699,229.402237 58.247639,228.941528 51.789803,228.313202 
	C49.481297,228.088608 47.740746,226.896851 46.042374,225.536423 
	C41.313999,221.748962 36.407585,218.149841 31.610430,212.937881 
	C39.358303,210.920883 46.387436,213.076065 53.012878,211.063583 
	C45.946953,208.666580 38.647636,209.589981 31.452444,209.322174 
	C25.338163,209.094604 18.655373,204.559982 16.364162,198.855820 
	C14.646129,194.578644 15.824796,192.929977 20.312643,193.304153 
	C29.428808,194.064240 38.541103,194.882019 47.666008,195.517899 
	C49.892788,195.673065 52.322891,196.271591 55.628384,193.615311 
	C42.309196,190.753525 29.584560,191.298004 17.064402,189.514908 
	C18.303556,184.946426 21.332039,185.553497 23.834404,185.714417 
	C39.142796,186.698792 54.471130,186.760986 69.798470,186.895844 
	C72.629562,186.920761 75.465332,186.657867 78.293282,186.735077 
	C81.807434,186.831024 84.481041,186.141342 85.165649,181.999298 
	C85.691513,178.817642 88.236069,178.559692 90.939606,178.671936 
	C96.660233,178.909424 102.406517,179.361526 108.063950,177.535095 
	C101.750328,175.499924 95.086159,177.090363 88.309036,175.885208 
	C88.709236,170.944275 90.716713,166.943130 92.693970,162.975830 
	C93.608154,161.141541 95.620728,161.679688 97.216110,161.683029 
	C106.046463,161.701523 114.876587,161.825058 123.706947,161.845779 
	C125.455048,161.849869 127.382828,162.187302 129.644394,159.625549 
	C117.942368,156.317398 106.718620,157.912628 94.879799,158.281204 
	C96.099030,151.832413 98.314156,146.523956 100.315140,141.190002 
	C101.101807,139.093002 103.447609,139.788437 105.216003,139.631638 
	C109.581673,139.244583 114.157066,140.617783 119.180832,137.840012 
	C113.617439,134.778244 107.910042,137.528946 102.497116,135.476883 
	C104.173973,129.854401 106.491318,124.957146 112.068512,122.757797 
	C117.586014,120.581985 121.791740,123.701706 125.348267,127.382439 
	C132.687515,134.977982 138.063843,144.058762 143.849060,152.806641 
	C148.719467,160.171234 153.494003,167.609253 158.016525,175.190430 
	C161.199707,180.526459 165.143326,183.182297 171.752365,182.953064 
	C186.402557,182.444916 201.080765,182.802124 215.744232,182.584534 
	C220.292374,182.517044 224.672958,183.474854 229.136856,183.886398 
	C232.090637,184.158722 233.899414,186.057129 234.918365,188.758286 
	C235.984543,191.584625 234.582886,193.485046 232.608307,195.291199 
	C218.571518,208.130432 203.866577,220.127563 187.727753,230.241653 
	C181.733688,233.998093 176.526581,238.544693 171.711838,243.650330 
	C169.366470,246.137390 170.203094,248.960403 170.700882,251.684586 
	C172.382385,260.886780 175.656250,269.633850 178.542831,278.492126 
	C181.997177,289.092712 185.462585,299.691406 188.728088,310.350708 
	C189.571335,313.103210 190.944275,316.499146 187.872513,318.637604 
	C185.096893,320.569885 182.069504,319.150482 179.429947,317.600220 
	C174.081192,314.458832 169.724731,310.024200 164.873978,306.231628 
	C151.485733,295.764008 138.116821,285.271667 124.466019,274.559998 
z"/>
</svg>